<svg width="62" height="63" viewBox="0 0 62 63" fill="none" xmlns="http://www.w3.org/2000/svg">
<rect y="0.75034" width="62" height="62" rx="12" fill="black"/>
<path d="M23.5776 39.9657C22.0806 39.9657 20.8296 39.6375 19.8247 38.9813C18.8267 38.325 18.0747 37.4261 17.5688 36.2845C17.0698 35.1429 16.8203 33.8475 16.8203 32.3983V32.183C16.8203 30.7201 17.0835 29.4212 17.6099 28.2865C18.1362 27.1449 18.8916 26.2459 19.876 25.5897C20.8604 24.9334 22.0361 24.6053 23.4033 24.6053C24.3672 24.6053 25.249 24.7557 26.0488 25.0565C26.8486 25.3573 27.5117 25.7401 28.0381 26.2049V29.4247H26.4282L26.2129 27.0663C25.5225 26.5399 24.5825 26.2767 23.3931 26.2767C22.4155 26.2767 21.5884 26.5296 20.9116 27.0355C20.2349 27.5345 19.7222 28.2249 19.3735 29.1068C19.0249 29.9886 18.8506 31.0072 18.8506 32.1624V32.3983C18.8506 34.2782 19.2642 35.7376 20.0913 36.7767C20.9185 37.8089 22.1045 38.325 23.6494 38.325C24.1279 38.325 24.5962 38.2669 25.0542 38.1507C25.5122 38.0345 25.8916 37.8841 26.1924 37.6996L26.418 35.618H27.9971V38.8582C27.4365 39.2069 26.7666 39.4803 25.9873 39.6786C25.208 39.87 24.4048 39.9657 23.5776 39.9657ZM30.0581 39.7503V38.4583L31.7295 38.1712V26.41L30.0581 26.1229V24.8206H35.4209V26.1229L33.7495 26.41V31.5677H40.8862V26.41L39.2148 26.1229V24.8206H44.5776V26.1229L42.9062 26.41V38.1712L44.5776 38.4583V39.7503H39.2148V38.4583L40.8862 38.1712V33.1571H33.7495V38.1712L35.4209 38.4583V39.7503H30.0581Z" fill="white"/>
</svg>
