<svg width="28" height="29" viewBox="0 0 28 29" fill="none" xmlns="http://www.w3.org/2000/svg">
<g clip-path="url(#clip0)">
<path d="M14 0.348801C6.2804 0.348801 0 6.6292 0 14.3488C0 17.7298 1.20493 20.8345 3.20787 23.2565C3.213 23.2635 3.21347 23.2724 3.21907 23.2789C4.66527 25.0229 6.48153 26.3599 8.50547 27.2237C8.5288 27.2335 8.55167 27.2442 8.575 27.254C8.7388 27.3231 8.90447 27.387 9.0706 27.4495C9.13593 27.4743 9.20127 27.4995 9.26753 27.5233C9.4108 27.5746 9.555 27.6231 9.70013 27.6698C9.793 27.6997 9.88587 27.7291 9.97967 27.7571C10.108 27.7953 10.2368 27.8322 10.3665 27.8672C10.4804 27.898 10.5952 27.9265 10.71 27.954C10.8262 27.982 10.9429 28.01 11.06 28.0347C11.1907 28.0627 11.3227 28.0875 11.4553 28.1117C11.5617 28.1313 11.6676 28.1519 11.7749 28.1691C11.9219 28.1929 12.0699 28.2116 12.2183 28.2307C12.3139 28.2429 12.4091 28.2569 12.5053 28.2671C12.6733 28.2849 12.8427 28.2975 13.0125 28.3091C13.0914 28.3147 13.1698 28.3231 13.2491 28.3273C13.4969 28.3413 13.7475 28.3488 14 28.3488C14.2525 28.3488 14.5031 28.3413 14.7518 28.3283C14.8311 28.3241 14.9095 28.3157 14.9884 28.3101C15.1583 28.2979 15.3277 28.2858 15.4957 28.2681C15.5918 28.2578 15.687 28.2438 15.7827 28.2317C15.9311 28.2125 16.079 28.1939 16.226 28.1701C16.3329 28.1528 16.4393 28.1323 16.5457 28.1127C16.6777 28.0884 16.8098 28.0637 16.9409 28.0357C17.0581 28.0105 17.1743 27.9829 17.2909 27.9549C17.4057 27.9269 17.5205 27.8985 17.6344 27.8681C17.7641 27.8336 17.8929 27.7963 18.0213 27.758C18.1151 27.73 18.2079 27.7006 18.3008 27.6707C18.4459 27.6241 18.5901 27.5755 18.7334 27.5242C18.7992 27.5004 18.8645 27.4752 18.9303 27.4505C19.0969 27.3879 19.2621 27.3235 19.4259 27.2549C19.4493 27.2451 19.4721 27.2344 19.4955 27.2246C21.5189 26.3608 23.3357 25.0238 24.7819 23.2799C24.7875 23.2733 24.7879 23.264 24.7931 23.2575C26.7951 20.8345 28 17.7298 28 14.3488C28 6.6292 21.7196 0.348801 14 0.348801ZM19.6733 26.1181C19.6663 26.1214 19.6597 26.1251 19.6527 26.1284C19.4861 26.2087 19.3167 26.2843 19.1459 26.358C19.1072 26.3743 19.0689 26.3911 19.0302 26.4075C18.8809 26.47 18.7297 26.5293 18.5775 26.5862C18.5141 26.61 18.4506 26.6333 18.3867 26.6557C18.2518 26.7038 18.1165 26.75 17.9797 26.7939C17.8948 26.8209 17.8094 26.8466 17.724 26.8718C17.6027 26.9082 17.4809 26.9432 17.3577 26.9759C17.2541 27.0034 17.1495 27.0286 17.045 27.0533C16.9353 27.0795 16.8261 27.1061 16.7155 27.1294C16.5947 27.1551 16.4729 27.177 16.3515 27.1989C16.2531 27.2171 16.1551 27.2363 16.0557 27.2521C15.9189 27.2736 15.7808 27.2909 15.6431 27.3081C15.5559 27.3193 15.4691 27.3324 15.3809 27.3417C15.2236 27.3585 15.0649 27.3693 14.9067 27.3805C14.8363 27.3851 14.7663 27.3931 14.6949 27.3968C14.4639 27.4089 14.2324 27.4155 14 27.4155C13.7676 27.4155 13.5361 27.4089 13.3056 27.3968C13.2347 27.3931 13.1647 27.3856 13.0937 27.3805C12.9351 27.3697 12.7769 27.3585 12.6196 27.3417C12.5314 27.3324 12.4446 27.3193 12.3573 27.3081C12.2197 27.2909 12.0815 27.2736 11.9448 27.2521C11.8454 27.2363 11.7474 27.2171 11.6489 27.1989C11.5271 27.177 11.4053 27.1546 11.2849 27.1294C11.1743 27.1061 11.0647 27.0795 10.9555 27.0533C10.8509 27.0281 10.7464 27.0034 10.6428 26.9759C10.5201 26.9432 10.3978 26.9077 10.2765 26.8718C10.1911 26.8466 10.1057 26.8209 10.0207 26.7939C9.884 26.75 9.7482 26.7038 9.6138 26.6557C9.54987 26.6329 9.4864 26.6095 9.42293 26.5862C9.2708 26.5293 9.1196 26.47 8.97027 26.4075C8.93153 26.3916 8.89373 26.3748 8.855 26.3585C8.6842 26.2852 8.5148 26.2091 8.34773 26.1289C8.34073 26.1256 8.3342 26.1223 8.3272 26.1186C6.699 25.3309 5.26073 24.2127 4.0936 22.8547C4.99567 19.533 7.54927 16.8553 10.8346 15.7899C10.8995 15.8295 10.9671 15.865 11.0339 15.9023C11.0731 15.9243 11.1118 15.9476 11.1515 15.9686C11.2905 16.0423 11.4315 16.1114 11.5757 16.1735C11.6863 16.222 11.8006 16.2631 11.9145 16.3051C11.9369 16.313 11.9593 16.3219 11.9817 16.3298C12.6145 16.5538 13.2916 16.6821 14 16.6821C14.7084 16.6821 15.3855 16.5538 16.0179 16.3298C16.0403 16.3219 16.0627 16.313 16.0851 16.3051C16.1989 16.2631 16.3133 16.222 16.4239 16.1735C16.5681 16.1114 16.709 16.0423 16.8481 15.9686C16.8877 15.9471 16.9265 15.9243 16.9657 15.9023C17.0324 15.865 17.1005 15.8295 17.1659 15.7894C20.4512 16.8553 23.0043 19.533 23.9069 22.8543C22.7397 24.2118 21.3015 25.3299 19.6733 26.1181ZM8.86667 10.6155C8.86667 7.78513 11.1697 5.48213 14 5.48213C16.8303 5.48213 19.1333 7.78513 19.1333 10.6155C19.1333 12.4159 18.1995 14.0002 16.7925 14.9167C16.6087 15.0362 16.4173 15.1431 16.2209 15.2364C16.1975 15.2476 16.1747 15.2593 16.1513 15.27C14.7999 15.8846 13.2001 15.8846 11.8487 15.27C11.8253 15.2593 11.802 15.2476 11.7791 15.2364C11.5822 15.1431 11.3913 15.0362 11.2075 14.9167C9.80047 14.0002 8.86667 12.4159 8.86667 10.6155ZM24.6069 21.9662C23.5489 18.8423 21.1353 16.3177 18.0516 15.1183C19.285 14.0072 20.0667 12.4028 20.0667 10.6155C20.0667 7.2704 17.3451 4.5488 14 4.5488C10.6549 4.5488 7.93333 7.2704 7.93333 10.6155C7.93333 12.4028 8.715 14.0072 9.94887 15.1183C6.86513 16.3181 4.45153 18.8423 3.3936 21.9662C1.84753 19.82 0.933333 17.1899 0.933333 14.3488C0.933333 7.14393 6.79513 1.28213 14 1.28213C21.2049 1.28213 27.0667 7.14393 27.0667 14.3488C27.0667 17.1899 26.1525 19.82 24.6069 21.9662Z" fill="black"/>
</g>
<defs>
<clipPath id="clip0">
<rect width="28" height="28" fill="white" transform="translate(0 0.348801)"/>
</clipPath>
</defs>
</svg>
